<svg width="48" height="48" viewBox="0 0 48 48" fill="none" xmlns="http://www.w3.org/2000/svg">
  <!-- Circle Background -->
  <circle cx="24" cy="24" r="24" fill="white"/>

  <!-- Arrow Icon -->
  <g transform="translate(13, 15)">
    <path fill-rule="evenodd" clip-rule="evenodd" d="M1.24927 9.86682H17.0384L11.6752 15.1704C11.2018 15.6534 11.2118 16.4255 11.6902 16.9024C12.1724 17.3755 12.9532 17.3854 13.4417 16.9172L20.9373 9.50485C21.1722 9.27383 21.3034 8.96004 21.3034 8.63637V8.63143C21.3034 8.47206 21.2696 8.30776 21.2059 8.15827C21.1422 8.00879 21.0498 7.87413 20.9373 7.75801L13.4417 0.345661C12.9482 -0.122552 12.1724 -0.112669 11.6902 0.360486C11.2068 0.837347 11.2018 1.60947 11.6752 2.0925L17.0384 7.39604H1.24927C0.560923 7.39604 0 7.95073 0 8.63143C0 9.31213 0.560923 9.86682 1.24927 9.86682Z" fill="#1D1F2A"/>
  </g>
</svg>
