<svg width="70" height="70" viewBox="0 0 70 70" fill="none" xmlns="http://www.w3.org/2000/svg">
<path fill-rule="evenodd" clip-rule="evenodd" d="M66.5 53.6667H3.5C1.568 53.6667 0 52.0987 0 50.1667V3.5C0 1.568 1.568 0 3.5 0H66.5C68.432 0 70 1.568 70 3.5V50.1667C70 52.0987 68.432 53.6667 66.5 53.6667Z" fill="#1D1F2A"/>
<path fill-rule="evenodd" clip-rule="evenodd" d="M59.4998 48.9998H6.99984C5.71184 48.9998 4.6665 47.9545 4.6665 46.6665V6.99984C4.6665 5.71184 5.71184 4.6665 6.99984 4.6665H58.3332C59.6212 4.6665 60.6665 5.71184 60.6665 6.99984V47.8332C60.6665 48.4772 60.1438 48.9998 59.4998 48.9998Z" fill="#FDFEFF"/>
<path fill-rule="evenodd" clip-rule="evenodd" d="M6.99984 46.6665V6.99984C6.99984 5.71184 8.04517 4.6665 9.33317 4.6665H6.99984C5.71184 4.6665 4.6665 5.71184 4.6665 6.99984V46.6665C4.6665 47.9545 5.71184 48.9998 6.99984 48.9998H9.33317C8.04517 48.9998 6.99984 47.9545 6.99984 46.6665Z" fill="#DFEAEF"/>
<path fill-rule="evenodd" clip-rule="evenodd" d="M45.5 26.8335C45.5 32.6311 40.7976 37.3335 35 37.3335C29.2024 37.3335 24.5 32.6311 24.5 26.8335C24.5 21.0359 29.2024 16.3335 35 16.3335C40.7976 16.3335 45.5 21.0359 45.5 26.8335Z" fill="#1D1F2A"/>
<path fill-rule="evenodd" clip-rule="evenodd" d="M39.6669 31.4998C39.6669 30.6675 40.1164 29.9022 40.8336 29.4884C39.2842 28.5707 37.3211 29.6953 37.3336 31.4998V34.9998C38.1176 34.9998 38.9016 34.908 39.6669 34.7322V31.4998Z" fill="#004787"/>
<path fill-rule="evenodd" clip-rule="evenodd" d="M37.3335 34.9999C33.3839 35.0062 29.7688 32.7942 27.9752 29.2755C26.1832 25.7584 26.5177 21.535 28.8386 18.3384C26.3481 20.1428 24.7739 22.9444 24.5312 26.0073C24.287 29.0702 25.3992 32.0833 27.5755 34.2579C29.7439 36.4279 32.7586 37.5402 35.8199 37.2975C38.8828 37.0533 41.6906 35.4806 43.4888 32.9886C41.703 34.2953 39.5455 34.9999 37.3335 34.9999Z" fill="#004787"/>
<path fill-rule="evenodd" clip-rule="evenodd" d="M32.6667 31.5002C32.0227 31.5002 31.5 30.9775 31.5 30.3335V23.3335C31.5 22.464 32.4116 21.8993 33.1893 22.2882L40.1893 25.7882C40.9002 26.1475 41.0527 27.0949 40.4927 27.6533C40.3107 27.8369 40.3107 27.8369 33.1893 31.3726C33.0244 31.4582 32.8487 31.5002 32.6667 31.5002Z" fill="#FEBC00"/>
<path fill-rule="evenodd" clip-rule="evenodd" d="M40.1894 25.7882L39.9607 25.6731L35.5227 27.8789C34.7449 28.2678 33.8334 27.7031 33.8334 26.8335V22.6102L33.1894 22.2882C32.4116 21.8993 31.5 22.464 31.5 23.3335V30.3335C31.4938 31.2031 32.4054 31.7678 33.1831 31.3851C40.2983 27.8478 40.2983 27.8478 40.4865 27.6658C41.0465 27.1011 40.894 26.1522 40.1831 25.8006L40.1894 25.7882Z" fill="#EDAA03"/>
<path fill-rule="evenodd" clip-rule="evenodd" d="M22.1665 39.6665H11.6665V41.9998H44.3332V39.6665H22.1665Z" fill="#1D1F2A"/>
<path fill-rule="evenodd" clip-rule="evenodd" d="M65.3333 24.5C66.6213 24.5 67.6667 25.788 67.6667 26.8333C67.6667 28.1213 66.6213 29.1667 65.3333 29.1667C64.0453 29.1667 63 27.8787 63 26.8333C63 25.5453 64.0453 24.5 65.3333 24.5Z" fill="#FEBC00"/>
<path fill-rule="evenodd" clip-rule="evenodd" d="M66.4998 27.9998C64.8043 28.006 63.6749 26.2498 64.3796 24.7129C62.8847 25.374 62.5192 27.3371 63.6749 28.4913C64.8354 29.6518 66.7923 29.2878 67.4596 27.7929C67.1563 27.9267 66.8281 27.9998 66.4998 27.9998Z" fill="#EDAA03"/>
<path fill-rule="evenodd" clip-rule="evenodd" d="M56 46.6665C54.712 46.6665 53.6666 47.7118 53.6666 48.9998V45.4998C53.6666 42.3887 49 42.3887 49 45.4998V40.8332C49 37.7221 44.3333 37.7221 44.3333 40.8332V31.4998C44.3333 28.3887 39.6666 28.3887 39.6666 31.4998V55.0338C39.6666 56.3281 38.1049 56.9721 37.1933 56.0605L32.6666 51.5338C31.7613 50.5974 30.2602 50.5865 29.3424 51.5089C28.42 52.4267 28.4309 53.9278 29.3673 54.8332L34.314 59.7861L36.3969 61.8643C38.5544 64.0203 39.7693 66.9494 39.7693 69.9998H55.314V69.5627C55.314 67.8858 55.8413 66.2509 56.8198 64.8836C57.8044 63.5225 58.3333 61.8876 58.3333 60.2107V48.9998C58.3333 47.7118 57.288 46.6665 56 46.6665Z" fill="#ECC19C"/>
<path fill-rule="evenodd" clip-rule="evenodd" d="M18.6665 43.1669C16.5883 43.1669 15.5492 40.6515 17.0145 39.1815C18.4845 37.7162 20.9999 38.7553 20.9999 40.8335C20.9999 42.1215 19.9545 43.1669 18.6665 43.1669Z" fill="#FEBC00"/>
<path fill-rule="evenodd" clip-rule="evenodd" d="M19.8333 41.9998C18.1378 42.006 17.0084 40.2498 17.7131 38.7129C16.2182 39.374 15.8527 41.3371 17.0084 42.4913C18.1689 43.6518 20.1258 43.2878 20.7931 41.7929C20.4898 41.9267 20.1616 41.9998 19.8333 41.9998Z" fill="#EDAA03"/>
<path fill-rule="evenodd" clip-rule="evenodd" d="M29.3673 51.534C29.5135 51.394 29.6768 51.2727 29.8479 51.17C28.1026 50.148 25.9762 51.6927 26.4024 53.6667H28.7357C28.5708 52.8951 28.8088 52.0924 29.3673 51.534ZM37.3333 53.6667H39.6666V49H37.3333V53.6667Z" fill="#004787"/>
<mask id="mask0_517_3021" style="mask-type:luminance" maskUnits="userSpaceOnUse" x="0" y="0" width="70" height="70">
<path fill-rule="evenodd" clip-rule="evenodd" d="M0 70H70V0H0V70Z" fill="white"/>
</mask>
<g mask="url(#mask0_517_3021)">
<path fill-rule="evenodd" clip-rule="evenodd" d="M37.3334 49.0002H39.6667V42.0002H37.3334V49.0002ZM39.6667 36.2275C39.3929 36.3613 39.1145 36.4889 38.8345 36.5978C38.7365 36.6351 38.64 36.6709 38.5358 36.7082C38.2745 36.8047 38.0085 36.884 37.7347 36.9571C37.6196 36.9867 37.492 37.024 37.3691 37.0535L37.3271 37.066V39.6669H39.6605L39.6667 36.2275Z" fill="#DFEAEF"/>
<path fill-rule="evenodd" clip-rule="evenodd" d="M39.6668 34.7324C38.9015 34.9082 38.1175 35 37.3335 35V37.0595L37.3755 37.0533C37.8748 36.932 38.3602 36.7795 38.8346 36.5975C39.1193 36.4824 39.3993 36.3673 39.6668 36.2211V34.7324ZM37.3335 42H39.6668V39.6666H37.3335V42Z" fill="#004787"/>
</g>
</svg>
