<svg width="19" height="15" viewBox="0 0 19 15" fill="none" xmlns="http://www.w3.org/2000/svg">
<path fill-rule="evenodd" clip-rule="evenodd" d="M18.7834 2.37767L18.0312 1.62354L11.0558 8.59894C10.1844 9.46997 8.71855 9.46997 7.84474 8.59894L0.871714 1.66396L0.117188 2.4161L5.30971 7.60823L0.117188 12.8004L0.871714 13.5525L6.06146 8.36038L7.09299 9.39151C7.72784 10.0264 8.55845 10.3822 9.42988 10.3822C10.3037 10.3822 11.1343 10.0264 11.7695 9.39151L12.7983 8.36038L17.9908 13.5525L18.7426 12.8004L13.5528 7.60823L18.7834 2.37767Z" fill="white"/>
<path fill-rule="evenodd" clip-rule="evenodd" d="M1.62358 1.46557C1.30615 1.46557 1.06997 1.70413 1.06997 2.01958V13.1964C1.06997 13.5118 1.30615 13.7504 1.62358 13.7504H17.2768C17.5947 13.7504 17.8328 13.5118 17.8328 13.1964V2.01958C17.8328 1.70413 17.5947 1.46557 17.2768 1.46557H1.62358ZM17.3176 14.8988H1.6644C0.752149 14.8988 0 14.1467 0 13.2348V2.06C0 1.14814 0.752149 0.395996 1.6644 0.395996H17.3176C18.2291 0.395996 18.9816 1.14814 18.9816 2.06V13.2348C18.9816 14.1467 18.2291 14.8988 17.3176 14.8988Z" fill="white"/>
</svg>
