<svg width="100" height="100" viewBox="0 0 100 100" fill="none" xmlns="http://www.w3.org/2000/svg">
<circle cx="50" cy="50" r="50" fill="#736A68"/>
<path fill-rule="evenodd" clip-rule="evenodd" d="M15 85.25L19 89C21.5 91 21.5 91.5 25 93C25 93 39.625 100 50.5 100C60.0417 100 78 92 78 92C81 90.5 80 90.5 82 88.5L85 85.25C85 73.6125 61.69 67.75 50 67.75C38.31 67.75 15 73.6125 15 85.25ZM50 59C59.6731 59 67.5 51.1731 67.5 41.5C67.5 31.8269 59.6731 24 50 24C40.3269 24 32.5 31.8269 32.5 41.5C32.5 51.1731 40.3269 59 50 59Z" fill="#F5F9FF"/>
<circle cx="85" cy="85" r="15" fill="#736A68"/>
<path fill-rule="evenodd" clip-rule="evenodd" d="M79.96 90.9553H88.36C89.4447 90.953 90.32 90.0716 90.32 88.9885V84.7667C90.32 84.4581 90.0686 84.2067 89.76 84.2067C89.4514 84.2067 89.2 84.4581 89.2 84.7667V88.9885C89.2022 89.4545 88.8259 89.833 88.36 89.8353H79.96C79.4941 89.833 79.1178 89.4545 79.12 88.9885V80.602C79.1178 80.1361 79.4941 79.7575 79.96 79.7553H84.16C84.4686 79.7553 84.72 79.5038 84.72 79.1953C84.72 78.8867 84.4686 78.6353 84.16 78.6353H79.96C78.8747 78.6375 78 79.5189 78 80.602V88.9885C78 90.0716 78.8747 90.953 79.96 90.9553Z" fill="white"/>
<path fill-rule="evenodd" clip-rule="evenodd" d="M84.3528 83.8196L88.1457 80.0178L88.9286 80.8051L85.1335 84.6092L84.1294 84.8304L84.3528 83.8196ZM89.3357 78.8278C89.5563 78.6155 89.9063 78.6155 90.1275 78.8278C90.3443 79.0484 90.3443 79.3984 90.1275 79.6196L89.7316 80.0155L88.9398 79.2237L89.3357 78.8278ZM83.2939 83.4192L82.852 85.4425C82.8128 85.6306 82.8694 85.8255 83.0055 85.9588C83.141 86.0904 83.3331 86.147 83.519 86.11L85.5406 85.6682C85.6431 85.6441 85.7394 85.5914 85.8161 85.5147L90.9194 80.4114C91.5757 79.7551 91.5757 78.6922 90.9194 78.0359C90.2547 77.4014 89.2086 77.4014 88.5439 78.0359L83.449 83.1437C83.3728 83.2204 83.3179 83.3139 83.2939 83.4192Z" fill="white"/>
</svg>
