<svg width="51" height="47" viewBox="0 0 51 47" fill="none" xmlns="http://www.w3.org/2000/svg">
<path d="M17.3037 47L31.6668 47C42.3443 47 51.0001 38.3442 51.0001 27.6667L51.0001 19.3333C51.0001 8.65584 42.3443 6.85792e-06 31.6668 5.56026e-06L17.3037 3.8147e-06L17.3037 47Z" fill="#2267F2"/>
<path d="M17.3034 11.9066C26.357 11.9066 33.6963 17.0971 33.6963 23.4999C33.6963 29.9027 26.357 35.0933 17.3034 35.0933L17.3034 11.9066Z" fill="#219FFF"/>
<path d="M17.3036 11.9066C7.74707 11.9066 2.24096e-06 17.0971 1.44365e-06 23.4999C6.46345e-07 29.9027 7.74707 35.0933 17.3036 35.0933L17.3036 11.9066Z" fill="#3FD0FF"/>
</svg>
