<?xml version="1.0" standalone="no"?>
<!DOCTYPE svg PUBLIC "-//W3C//DTD SVG 20010904//EN"
 "http://www.w3.org/TR/2001/REC-SVG-20010904/DTD/svg10.dtd">
<svg version="1.0" xmlns="http://www.w3.org/2000/svg"
 width="437.000000pt" height="303.000000pt" viewBox="0 0 437.000000 303.000000"
 preserveAspectRatio="xMidYMid meet">

<g transform="translate(0.000000,303.000000) scale(0.100000,-0.100000)"
fill="#000000" stroke="none">
<path d="M975 2959 c-4 -5 0 -18 9 -28 9 -10 16 -21 16 -25 0 -4 9 -16 20 -28
11 -12 59 -75 107 -140 55 -75 93 -118 105 -118 26 0 22 17 -12 59 -36 43 -39
46 -70 91 -14 19 -35 46 -47 60 -13 13 -23 28 -23 32 0 3 -6 13 -13 20 -7 7
-25 30 -41 51 -30 39 -40 44 -51 26z"/>
<path d="M1385 2817 c-5 -12 13 -44 60 -107 52 -70 72 -90 91 -90 23 0 21 3
-23 63 -107 140 -121 155 -128 134z"/>
<path d="M2020 2449 c-148 -38 -249 -96 -365 -209 -34 -33 -49 -26 -41 20 3
22 3 40 -1 40 -14 0 -79 -78 -100 -121 -46 -92 -82 -253 -83 -364 0 -71 23
-171 54 -231 14 -29 26 -64 26 -78 0 -16 6 -26 15 -26 10 0 15 10 15 29 0 40
23 91 54 120 29 27 33 65 10 96 -8 11 -19 36 -25 57 -30 113 66 198 281 248
76 18 271 16 340 -3 134 -37 225 -90 261 -152 24 -41 24 -106 -1 -150 -11 -20
-20 -51 -20 -70 0 -19 9 -50 20 -70 14 -25 20 -55 20 -98 1 -59 1 -61 15 -37
8 14 14 39 15 55 0 18 12 45 28 65 48 59 54 87 49 212 -3 62 -10 138 -16 168
-18 90 0 147 56 179 17 9 17 11 -2 31 -28 28 -113 57 -191 65 -62 7 -77 20
-43 35 8 4 24 12 36 18 13 7 28 12 35 12 7 0 21 6 30 14 15 11 9 15 -50 36
-57 20 -85 24 -187 23 -85 0 -134 -5 -169 -17 -27 -9 -51 -14 -54 -11 -8 8 19
84 35 96 7 6 13 15 13 20 0 11 -13 10 -60 -2z"/>
<path d="M3418 1843 c-46 -48 -38 -109 18 -144 64 -39 134 3 134 81 0 53 -26
81 -80 87 -40 4 -48 1 -72 -24z"/>
<path d="M4127 1439 c-27 -54 -46 -103 -42 -109 3 -6 48 -10 101 -10 77 0 94
3 94 15 0 17 -85 191 -97 198 -4 3 -30 -40 -56 -94z"/>
<path d="M191 1208 c-17 -40 -28 -48 -63 -48 -39 0 -41 -13 -9 -44 25 -24 28
-33 24 -67 -6 -44 -6 -45 40 -23 31 15 35 15 71 -6 l38 -21 -6 46 c-7 42 -5
48 24 75 l31 29 -28 6 c-49 11 -53 14 -74 50 -12 19 -24 35 -28 35 -3 0 -12
-15 -20 -32z"/>
<path d="M2391 1145 c-48 -90 -51 -100 -51 -168 0 -144 -55 -262 -152 -327
-21 -14 -38 -28 -38 -32 0 -5 -5 -8 -11 -8 -6 0 -30 -13 -54 -30 -56 -38 -85
-38 -143 2 -158 109 -207 183 -219 334 -5 71 -10 91 -31 115 -13 16 -44 63
-67 105 l-43 74 -43 -48 c-73 -81 -105 -165 -100 -262 8 -132 11 -121 -44
-149 -125 -65 -205 -136 -244 -213 -15 -30 -15 -31 94 -124 85 -72 237 -164
271 -164 8 0 14 -4 14 -10 0 -5 9 -10 20 -10 11 0 29 -4 40 -10 11 -5 29 -15
40 -20 11 -6 31 -10 44 -10 14 0 28 -4 31 -10 3 -5 19 -10 36 -10 l29 0 2 128
c1 70 2 149 2 176 1 52 19 75 50 63 14 -6 16 -30 16 -197 l0 -190 160 0 160 0
1 128 c2 232 3 244 20 255 9 6 24 7 33 4 14 -6 16 -29 16 -187 l0 -180 34 0
c19 0 38 4 41 10 3 5 19 10 35 10 16 0 32 5 35 10 3 6 15 10 26 10 10 0 28 5
39 10 11 5 29 14 40 20 11 5 27 10 35 10 8 0 15 5 15 10 0 6 9 10 19 10 11 0
21 3 23 8 2 4 23 18 48 31 59 31 155 100 204 145 l38 36 -13 45 c-7 25 -27 61
-44 80 -28 32 -189 145 -207 145 -12 0 -10 58 2 65 14 8 13 157 -1 192 -24 60
-34 80 -63 123 -26 39 -82 100 -91 100 -2 0 -26 -43 -54 -95z"/>
<path d="M627 886 c-24 -18 -25 -71 -2 -96 23 -26 55 -25 83 0 58 55 -18 144
-81 96z"/>
<path d="M648 220 c-27 -53 -48 -100 -48 -104 0 -3 45 -6 100 -6 61 0 100 4
100 10 0 14 -87 187 -97 193 -4 3 -29 -39 -55 -93z"/>
</g>
</svg>
