<?xml version="1.0" standalone="no"?>
<!DOCTYPE svg PUBLIC "-//W3C//DTD SVG 20010904//EN"
 "http://www.w3.org/TR/2001/REC-SVG-20010904/DTD/svg10.dtd">
<svg version="1.0" xmlns="http://www.w3.org/2000/svg"
 width="317.000000pt" height="300.000000pt" viewBox="0 0 317.000000 300.000000"
 preserveAspectRatio="xMidYMid meet">

<g transform="translate(0.000000,300.000000) scale(0.100000,-0.100000)"
fill="#000000" stroke="none">
<path d="M570 2833 c0 -14 356 -482 365 -479 6 1 10 9 10 16 0 24 -339 469
-357 470 -10 0 -18 -3 -18 -7z"/>
<path d="M930 2705 c0 -3 68 -95 150 -205 83 -110 150 -203 150 -208 0 -4 -32
-19 -71 -32 l-71 -25 -29 33 c-16 17 -36 32 -45 32 -19 0 -184 -118 -191 -138
-3 -7 4 -26 16 -42 28 -39 27 -58 -8 -95 -16 -16 -54 -66 -84 -110 -49 -73
-57 -80 -83 -76 -83 10 -76 15 -116 -99 -20 -58 -37 -111 -37 -117 -1 -7 20
-23 46 -35 l46 -23 -1 -145 c-1 -80 -1 -148 -2 -152 0 -3 -15 -12 -34 -18 -57
-19 -58 -26 -23 -136 18 -54 36 -105 41 -112 6 -10 22 -11 61 -7 52 7 54 6 70
-24 8 -17 45 -69 80 -116 36 -47 65 -90 65 -97 0 -7 -9 -24 -20 -38 -11 -14
-20 -32 -20 -40 0 -15 178 -150 198 -150 5 0 22 16 36 35 15 19 33 35 40 35 8
0 39 -11 70 -25 31 -14 86 -32 124 -41 84 -21 92 -28 92 -73 0 -20 5 -42 12
-49 13 -13 202 -17 232 -6 11 4 16 19 16 43 0 51 16 67 80 81 30 7 91 26 134
43 l79 31 32 -39 c20 -23 38 -36 47 -32 35 13 188 133 188 147 0 8 -9 26 -20
40 -11 14 -20 31 -20 38 0 7 24 43 54 80 29 37 66 89 81 115 l28 49 57 -7 58
-7 36 110 c20 60 34 116 31 124 -3 8 -24 20 -46 27 l-39 12 0 155 0 155 45 19
c25 11 45 23 45 27 0 19 -68 215 -78 225 -7 7 -20 7 -43 -1 -17 -6 -38 -11
-46 -11 -7 0 -33 30 -56 68 -24 37 -62 89 -85 115 -48 55 -50 64 -22 100 11
14 20 32 20 41 0 19 -167 145 -192 146 -10 0 -27 -13 -40 -30 -26 -36 -42 -37
-116 -6 -31 13 -84 29 -118 36 -34 7 -67 16 -75 20 -7 5 -15 30 -18 57 l-6 48
-105 3 c-144 4 -150 2 -150 -52 0 -52 -10 -62 -70 -71 l-45 -6 -154 205 c-84
113 -159 206 -167 206 -8 0 -14 -2 -14 -5z m781 -566 c257 -71 465 -286 530
-549 20 -80 18 -279 -4 -360 -69 -255 -259 -451 -517 -532 -109 -33 -311 -33
-420 0 -208 65 -374 206 -465 397 -50 104 -69 191 -69 325 0 140 16 209 80
339 83 170 255 316 434 371 142 44 294 47 431 9z"/>
<path d="M2345 2165 c-50 -49 -24 -130 46 -141 81 -13 128 89 65 142 -36 31
-80 31 -111 -1z"/>
<path d="M2972 1805 c-23 -47 -42 -87 -42 -90 0 -3 41 -5 90 -5 l90 0 -45 90
c-25 50 -46 90 -48 90 -1 0 -22 -38 -45 -85z"/>
<path d="M159 1145 c-11 -30 -18 -35 -57 -41 l-44 -6 31 -32 c27 -27 30 -36
24 -69 l-6 -38 37 17 c34 17 38 17 72 0 l37 -17 -6 38 c-6 33 -3 42 24 69 l30
31 -41 7 c-34 5 -43 12 -57 41 -9 19 -20 35 -24 35 -4 0 -13 -16 -20 -35z"/>
<path d="M546 854 c-31 -31 -7 -94 35 -94 45 0 70 59 40 89 -25 25 -54 27 -75
5z"/>
<path d="M557 265 l-47 -95 100 0 100 0 -47 95 c-26 52 -50 95 -53 95 -3 0
-27 -43 -53 -95z"/>
</g>
</svg>
